<?xml version="1.0" encoding="utf-8"?>
<!-- Generator: Adobe Illustrator 24.1.1, SVG Export Plug-In . SVG Version: 6.00 Build 0)  -->
<svg version="1.1" xmlns="http://www.w3.org/2000/svg" xmlns:xlink="http://www.w3.org/1999/xlink" x="0px" y="0px"
	 viewBox="0 0 320 305" style="enable-background:new 0 0 320 305;" xml:space="preserve">
<style type="text/css">
	.st0{display:none;fill:#F16722;}
	.st1{fill:#F16722;}
</style>
<g id="Layer_2">
</g>
<g id="Layer_1">
	<g>
		<polygon class="st0" points="333.2,-76.2 163.5,-175.7 162.5,-171.7 0,-61.2 12.7,-17.6 167,-122.5 322,-31.6 		"/>
		<g>
			<polygon class="st1" points="278.7,97.3 278.7,213.5 44.7,213.5 44.7,12.7 11.9,12.7 11.9,305 44.7,305 44.7,263.2 278.7,263.2 
				278.7,305 311.5,305 311.5,263.2 311.5,213.5 311.5,97.3 			"/>
			<g>
				<ellipse class="st1" cx="77.2" cy="165.8" rx="26" ry="26"/>
				<path class="st1" d="M272.3,191.9h-164v-21.5c0-15.8,6.3-28.6,14-28.6h136.1c7.7,0,14,12.8,14,28.6L272.3,191.9L272.3,191.9z"/>
			</g>
		</g>
	</g>
</g>
</svg>
