<svg id="Layer_1" data-name="Layer 1" xmlns="http://www.w3.org/2000/svg" width="320" height="305" viewBox="0 0 320 305"><defs><style>.cls-1{fill:#231f20;}.cls-2{fill:#fff;}</style></defs><path class="cls-1" d="M266.7019,298.8186l-92.7344-83.3842a23.9068,23.9068,0,0,1-1.8289-33.76q.0472-.0526.0947-.1049l13.0835-14.4291a24.149,24.149,0,0,1,34.0071-1.727l92.7344,83.3842a23.9068,23.9068,0,0,1,1.829,33.76l-.0947.1049L300.709,297.0916A24.149,24.149,0,0,1,266.7019,298.8186Z"/><path class="cls-1" d="M282.8264,305.4884a24.5338,24.5338,0,0,1-16.458-6.2979l-92.7353-83.3847a24.4071,24.4071,0,0,1-1.8656-34.4664l.0951-.1054,13.0835-14.4292a24.678,24.678,0,0,1,34.7124-1.7627l92.7334,83.3838A24.4054,24.4054,0,0,1,314.26,282.89q-.0487.0543-.0977.1083l-13.083,14.43A24.568,24.568,0,0,1,282.8264,305.4884ZM203.199,159.7428a23.5664,23.5664,0,0,0-17.5117,7.7339l-13.0835,14.4292a23.4061,23.4061,0,0,0,1.5942,33.0628q.0519.0471.104.0939l92.7344,83.3838a23.6731,23.6731,0,0,0,33.3027-1.69l13.083-14.43a23.4066,23.4066,0,0,0-1.5955-33.0636q-.0511-.0465-.1027-.0927L218.99,165.7853A23.5451,23.5451,0,0,0,203.199,159.7428Z"/><path class="cls-2" d="M109.3266,0C48.9472,0,0,49.4676,0,110.4889S48.9472,220.9778,109.3266,220.9778,218.6533,171.51,218.6533,110.4889,169.7061,0,109.3266,0Zm-.144,199.8067c-49.813,0-90.1944-40.2123-90.1944-89.8168S59.37,20.1731,109.1826,20.1731s90.1946,40.2124,90.1946,89.8168S158.9957,199.8067,109.1826,199.8067Z"/><path class="cls-1" d="M109.3264,221.4777C48.7678,221.4777-.5,171.6881-.5,110.4889S48.7678-.5,109.3264-.5,219.1536,49.29,219.1536,110.4889,169.8855,221.4777,109.3264,221.4777ZM109.3264.5C49.3191.5.5,49.8409.5,110.4889S49.3191,220.4777,109.3264,220.4777s108.8272-49.3409,108.8272-109.9888S169.3338.5,109.3264.5Zm-.144,199.8067c-50.0088,0-90.6943-40.5162-90.6943-90.3169S59.1736,19.673,109.1824,19.673s90.6948,40.5161,90.6948,90.3169-40.6855,90.3169-90.6948,90.3169Zm0-179.6338c-49.4575,0-89.6943,40.0674-89.6943,89.3169s40.2368,89.3169,89.6943,89.3169,89.6948-40.0674,89.6948-89.3169S158.64,20.673,109.1824,20.673Z"/><path class="cls-1" d="M85.4036,154.51c6.1386,5.792,5.7246,10.602.72,15.8618a28.8743,28.8743,0,0,1-3.2407,2.9546l-4.2071-3.97A22.6917,22.6917,0,0,0,81.0007,167.2c2.16-2.27,2.4517-4.3735-.4028-7.0674L66.1428,146.4938l5.0918-5.3521Z"/><path class="cls-1" d="M108.8635,123.4171c6.1075,5.7622,7.7046,14.9658.1119,22.9463-7.08,7.44-16.231,6.8721-22.6626.8027-6.0616-5.7187-7.1534-15.29-.0777-22.7265C93.5247,116.7784,102.8547,117.7472,108.8635,123.4171ZM91.5867,141.4894c4.168,3.9321,9.4311,4.9082,13.5.6323,4.2036-4.418,2.0806-9.6523-1.5015-13.0322-3.9043-3.6831-9.1006-4.9907-13.3252-.55C86.1956,132.81,87.8738,137.986,91.5867,141.4894Z"/><path class="cls-1" d="M102.0881,108.715l11.5542-12.1441c4.9957-5.25,9.7339-5.1128,12.8433-2.1787a6.6315,6.6315,0,0,1,1.5845,7.7109c2.6826-1.499,6.1855-1.9008,8.98.7354,4.1347,3.9014,3.5547,9.3457-1.5606,14.7222L124.1233,129.506Zm19.1216-2.8921c2.2676-2.3833,2.042-4.0376.708-5.2964-1.6621-1.5674-3.5337-.9473-5.2832.8916l-5.5517,5.8349,4.6191,4.3584Zm3.9229,14.6865,5.7221-6.0142c1.9512-2.0507,2.8292-4.1792.6485-6.2363-1.76-1.66-3.8-1.3257-6.0044.9912l-5.8184,6.1157Z"/><path class="cls-1" d="M144.6931,94.7174c2.501,1.166,5.1914.83,8.6568-2.8125,3.2441-3.41,3.1382-5.3823,1.7163-6.7236-1.5186-1.4326-3.3355-1.23-8.524,2.6494-8.5517,6.38-12.3525,5.4214-15.3085,2.6323-4.4-4.1518-2.6358-10.4922,2.2988-15.6782,7.1645-7.53,12.998-5.9048,15.7954-3.7383l-5.0728,5.332c-1.3862-.72-3.5415-1.3681-6.9853,2.2515-2.4136,2.5361-2.8262,4.5864-1.4024,5.93,1.2735,1.2016,2.774.9028,7.4341-2.5166,9.4346-6.9185,13.2036-5.8379,16.4-2.8223,3.8194,3.6035,4.0664,9.5-2.935,16.8584-6.53,6.8638-12.5479,7.0523-17.15,3.9736Z"/></svg>