<svg id="Layer_1" data-name="Layer 1" xmlns="http://www.w3.org/2000/svg" width="320" height="306" viewBox="0 0 320 306"><defs><style>.cls-1{fill:#f05a28;}.cls-2{fill:#fff;}</style></defs><polygon class="cls-1" points="264.369 306 2.015 306 2.015 1 213.136 1 264.369 1 264.369 306"/><rect class="cls-2" x="46.8287" y="136.7862" width="169.168" height="2"/><rect class="cls-2" x="46.8287" y="189.5782" width="169.168" height="2"/><rect class="cls-2" x="46.8287" y="163.1827" width="169.168" height="2"/><rect class="cls-2" x="46.8287" y="215.9737" width="169.168" height="2"/><rect class="cls-2" x="46.8287" y="242.3702" width="169.168" height="2"/><polygon class="cls-1" points="320.236 115.866 310.218 107.482 231.272 256.594 230.502 256 230.488 258.075 229.994 259.008 230.479 259.414 230.38 273.675 239.026 266.568 240.012 267.393 320.236 115.866"/><path class="cls-2" d="M229.8716,274.7394l.1055-15.0928-.6142-.5137.6259-1.1846.02-2.96,1.0987.8476,78.956-149.1342,10.8028,9.04-.19.3584L240.1636,268.1729l-1.1406-.956Zm.753-15.8545.3564.2968-.0937,13.4287,8.1416-6.6923.83.6943L319.605,115.99l-9.2343-7.7285-78.9346,149.09-.44-.34-.0088,1.1885Z"/><rect class="cls-2" x="311.8101" y="115.7021" width="1.0011" height="16.5804" transform="translate(84.0786 370.6138) rotate(-68.8716)"/><line class="cls-1" x1="318.7824" y1="127.2721" x2="299.7216" y2="163.0717"/><rect class="cls-1" x="288.9733" y="143.1715" width="40.5573" height="4.0009" transform="translate(35.7404 349.8744) rotate(-61.9588)"/><ellipse class="cls-1" cx="107.447" cy="73.23" rx="63.9326" ry="53.2801" transform="translate(-2.7157 4.1528) rotate(-2.1865)"/><path class="cls-2" d="M106.5865,127.0313a76.9205,76.9205,0,0,1-9.9942-.6523c-18.7124-2.4541-34.9829-11.6338-44.6391-25.1851a46.1329,46.1329,0,0,1-7.9971-36.3266c6.001-29.2837,39.3506-49.3745,74.3457-44.7857,18.7119,2.4537,34.9819,11.6329,44.6382,25.1841a46.132,46.132,0,0,1,7.998,36.3272C165.5123,108.0685,137.7256,127.0294,106.5865,127.0313Zm1.71-106.6035c-30.6772,0-58.03,18.6241-63.3613,44.6407a45.1417,45.1417,0,0,0,7.832,35.5449c9.4956,13.3262,25.5166,22.3554,43.9546,24.7734,34.4888,4.5235,67.3379-15.2139,73.2354-43.9951a45.14,45.14,0,0,0-7.8321-35.5459c-9.496-13.3257-25.5161-22.355-43.9536-24.7729A76.04,76.04,0,0,0,108.2969,20.4278Z"/><line class="cls-1" x1="110.5628" y1="73.6386" x2="117.1716" y2="41.3888"/><rect class="cls-2" x="97.4069" y="56.014" width="32.9202" height="2.9996" transform="translate(34.6528 157.507) rotate(-78.412)"/><line class="cls-1" x1="61.41" y1="93.4019" x2="111.5433" y2="72.9117"/><rect class="cls-2" x="59.3974" y="82.6569" width="54.159" height="1" transform="translate(-25.0147 38.8518) rotate(-22.2067)"/><ellipse class="cls-1" cx="110.6187" cy="73.6065" rx="2.0515" ry="1.6396"/><path class="cls-2" d="M110.6314,75.7472a3.14,3.14,0,0,1-.4092-.0269,2.5973,2.5973,0,0,1-1.7939-1.0137,1.8621,1.8621,0,0,1-.3237-1.4663,2.5212,2.5212,0,0,1,2.9106-1.7475h0a2.5972,2.5972,0,0,1,1.7939,1.0136,1.8629,1.8629,0,0,1,.3238,1.4664A2.4423,2.4423,0,0,1,110.6314,75.7472Zm-.01-3.28a1.498,1.498,0,0,0-1.5372.9746.87.87,0,0,0,.1587.6851,1.6,1.6,0,0,0,1.1094.6025,1.58,1.58,0,0,0,1.8013-.9575.87.87,0,0,0-.1587-.6851,1.6018,1.6018,0,0,0-1.1094-.6025h0A2.1092,2.1092,0,0,0,110.6212,72.4669Z"/><path class="cls-2" d="M200.12,46.74l6.1841-34.457a7.4463,7.4463,0,0,1,12.51-4.0333L252.61,40.9844a7.4464,7.4464,0,0,1-4.86,12.7882l-39.9807,1.7222A7.4464,7.4464,0,0,1,200.12,46.74Z"/><path class="cls-1" d="M207.441,56.5021a8.4463,8.4463,0,0,1-8.3057-9.939l6.1836-34.457a8.4469,8.4469,0,0,1,14.19-4.5748l33.7959,32.7349a8.446,8.446,0,0,1-5.5127,14.5054l-39.98,1.7222C207.688,56.4991,207.564,56.5021,207.441,56.5021Zm6.2324-49.3609a6.57,6.57,0,0,0-2.0195.3218,6.3515,6.3515,0,0,0-4.3662,4.9966l-6.1836,34.457a6.4451,6.4451,0,0,0,6.622,7.5791l39.9805-1.7222a6.4464,6.4464,0,0,0,4.208-11.0708L218.1187,8.9679A6.3555,6.3555,0,0,0,213.6734,7.1412Z"/><polyline class="cls-2" points="219.645 0 265.369 44 265.369 0"/></svg>